<svg width="27" height="22" viewBox="0 0 27 22" fill="none" xmlns="http://www.w3.org/2000/svg">
<path d="M0.578125 1.94553V5.92323H5.61655V2.74107L3.49511 0.619629H1.90403L0.578125 1.94553Z" fill="#000080"/>
<path d="M0.578125 5.92323H1.37367V2.21071L2.16921 1.41517H4.29065L4.02547 1.14999L3.49511 0.619629H1.90403L0.578125 1.94553V5.92323Z" fill="#0000B2"/>
<path d="M18.8756 0.619385H3.49512L5.61656 2.74083V19.182L8.26836 21.8338H9.32908H20.997V2.74083L18.8756 0.619385Z" fill="#CCDDFF"/>
<path d="M17.8151 0.619385H11.1855L13.307 2.74083V16.5302H20.2017V3.00601L17.8151 0.619385Z" fill="white"/>
<path d="M11.1863 6.45435L9.33008 8.31061L11.1863 10.1669H15.6944L17.5507 8.31061L15.6944 6.45435H11.1863Z" fill="#DD5F00"/>
<path d="M15.6923 6.45435H13.3057V10.1669H15.6923L17.5485 8.31061L15.6923 6.45435Z" fill="#FFBB33"/>
<path d="M22.3235 21.8352H8.26899L5.61719 19.1834V16.5316H25.2405V19.7138L23.1191 21.8352H22.3235Z" fill="#000080"/>
<path d="M23.1187 21.8352H17.0195L18.3454 20.5093V16.5316H25.2401V20.5093L23.9142 21.8352H23.1187Z" fill="#0000FF"/>
<path d="M11.4512 8.31061L13.3074 6.45435L15.1637 8.31061L13.3074 10.1669L11.4512 8.31061Z" fill="#FFF8C6"/>
<path d="M13.3057 10.1669V6.45435L15.1619 8.31061L14.2338 9.23874L13.3057 10.1669Z" fill="white"/>
<path d="M12.5127 8.31068L13.3082 7.51514V8.31068H14.1038L13.3082 9.10622L12.5127 8.31068Z" fill="#000080"/>
<path d="M13.3057 9.10511V8.30957H14.1012L13.3057 9.10511Z" fill="#0000FF"/>
<path d="M5.61719 19.7138V16.5316H10.6556V20.5093L9.32971 21.8352H7.73863L5.61719 19.7138Z" fill="#CCDDFF"/>
<path d="M9.33016 20.5078L8.7998 21.0382L9.59535 21.8337L10.9212 20.5078V17.3257H9.33016V20.5078Z" fill="#6699FF"/>
<path d="M26.0351 16.5312H25.2395V20.2438L23.6484 21.8349H24.7092L26.0351 20.509V16.5312Z" fill="#6699FF"/>
<path d="M20.9956 2.74083L18.8742 0.619385H17.8135L20.2001 3.00601V16.5302H20.9956V2.74083Z" fill="#6699FF"/>
<path d="M4.55584 0.619385L6.4121 2.47565V19.182L8.26836 21.0382H10.1246L9.32908 21.8338H7.738L5.61656 19.7123V2.74083L3.49512 0.619385H4.55584Z" fill="#6699FF"/>
<path d="M13.3057 3.53589V5.12697L14.1012 4.33143L13.3057 3.53589Z" fill="#6699FF"/>
<path d="M10.3905 21.0386H8.79945L8.00391 21.8341H9.59499L10.3905 21.0386Z" fill="#0000FF"/>
<path d="M13.3057 3.53589V5.12697L12.5101 4.33143L13.3057 3.53589Z" fill="#0000FF"/>
<path d="M9.33008 12.2878V13.8789L10.1256 13.0834L9.33008 12.2878Z" fill="#0000FF"/>
<path d="M11.4515 16.5312H10.656V20.509L9.33008 21.8349H10.3908L11.4515 20.7741V16.5312Z" fill="#0000B2"/>
<path d="M9.33008 12.2878V13.8789L8.53454 13.0834L9.33008 12.2878Z" fill="#000080"/>
<path d="M12.5127 12.2881V13.8792L13.3082 13.0836L12.5127 12.2881Z" fill="#0000B2"/>
<path d="M12.5127 12.2881V13.8792L11.7172 13.0836L12.5127 12.2881Z" fill="#6699FF"/>
<path d="M5.35138 2.47565H6.4121L4.55584 0.619385H3.49512L5.35138 2.47565Z" fill="#0000FF"/>
<path d="M14.1006 12.2881V13.8792L14.8961 13.0836L14.1006 12.2881Z" fill="#FFBB33"/>
<path d="M14.1006 12.2881V13.8792L13.305 13.0836L14.1006 12.2881Z" fill="#DD5F00"/>
<path d="M17.8135 12.2878V13.8789L18.609 13.0834L17.8135 12.2878Z" fill="#FEEF7E"/>
<path d="M17.8135 12.2878V13.8789L17.0179 13.0834L17.8135 12.2878Z" fill="#FFBB33"/>
<path d="M15.9592 5.12761H14.8984L15.9592 4.06689V5.12761Z" fill="#6699FF"/>
<path d="M15.9588 5.12761H17.0195L15.9588 4.06689V5.12761Z" fill="#CCDDFF"/>
<path d="M10.9188 5.12761H11.9795L10.9188 4.06689V5.12761Z" fill="#0000FF"/>
<path d="M10.9191 5.12761H9.8584L10.9191 4.06689V5.12761Z" fill="#000080"/>
<path d="M14.8984 13.083H16.4895L15.694 13.8785L14.8984 13.083Z" fill="#6699FF"/>
<path d="M6.4129 2.47565L4.55664 0.619385H11.1861L13.0424 2.47565H6.4129Z" fill="#6699FF"/>
<path d="M13.0418 2.47565L11.1855 0.619385H17.815L19.6713 2.47565H13.0418Z" fill="#CCDDFF"/>
</svg>
