<svg width="45" height="26" viewBox="0 0 45 26" fill="none" xmlns="http://www.w3.org/2000/svg">
<path d="M11.0071 8.83266V15.394L4.4458 8.83266L7.72645 5.552L11.0071 8.83266Z" fill="#000080"/>
<path d="M11.0074 15.3944V18.675H6.08643V10.4734L11.0074 15.3944Z" fill="#0000FF"/>
<path d="M17.5681 8.83266L11.0068 15.394V8.83266L14.2875 5.552L17.5681 8.83266Z" fill="#0000FF"/>
<path d="M15.9278 10.4734V18.675H11.0068V15.3944L15.9278 10.4734Z" fill="#000080"/>
<path d="M7.72675 18.6755H6.08643V25.2368H7.72675V18.6755Z" fill="#CCDDFF"/>
<path d="M4.4458 25.2367L7.72645 21.9561V25.2367H4.4458Z" fill="#000080"/>
<path d="M15.9289 18.6755H14.2886V25.2368H15.9289V18.6755Z" fill="#CCDDFF"/>
<path d="M7.72675 18.6755L6.08643 20.3159V18.6755H7.72675Z" fill="#000080"/>
<path d="M15.9289 20.3159L14.2886 18.6755H15.9289V20.3159Z" fill="#0000FF"/>
<path d="M14.2886 21.9561L17.5692 25.2367H14.2886V21.9561Z" fill="#0000FF"/>
<path d="M6.0871 10.4732L0.00585952 17.0313L0.00585937 13.7506L4.44677 8.83284L6.0871 10.4732Z" fill="#CCDDFF"/>
<path d="M15.9285 10.469L22.0098 17.0271L22.0098 13.7465L17.5689 8.82868L15.9285 10.469Z" fill="#CCDDFF"/>
<path d="M14.2875 3.91249L11.0068 7.19314V0.631836L14.2875 3.91249Z" fill="#F4F4F4"/>
<path d="M11.0087 0.631836V7.19314L7.72803 3.91249L11.0087 0.631836Z" fill="#CCDDFF"/>
<path d="M33.0115 8.83266V15.394L26.4502 8.83266L29.7308 5.552L33.0115 8.83266Z" fill="#DD5F00"/>
<path d="M33.0098 15.3944V18.675H28.0889V10.4734L33.0098 15.3944Z" fill="#FFBB33"/>
<path d="M39.5706 8.83266L33.0093 15.394V8.83266L36.2899 5.552L39.5706 8.83266Z" fill="#FFBB33"/>
<path d="M37.9303 10.4734V18.675H33.0093V15.3944L37.9303 10.4734Z" fill="#DD5F00"/>
<path d="M29.7292 18.6755H28.0889V25.2368H29.7292V18.6755Z" fill="#CCDDFF"/>
<path d="M26.4502 25.2367L29.7308 21.9561V25.2367H26.4502Z" fill="#DD5F00"/>
<path d="M37.9309 18.6755H36.2905V25.2368H37.9309V18.6755Z" fill="#CCDDFF"/>
<path d="M29.7292 18.6755L28.0889 20.3159V18.6755H29.7292Z" fill="#DD5F00"/>
<path d="M37.9309 20.3159L36.2905 18.6755H37.9309V20.3159Z" fill="#FFBB33"/>
<path d="M36.2905 21.9561L39.5712 25.2367H36.2905V21.9561Z" fill="#FFBB33"/>
<path d="M28.091 10.4732L22.0098 17.0313L22.0098 13.7506L26.4507 8.83284L28.091 10.4732Z" fill="#CCDDFF"/>
<path d="M37.9305 10.469L44.0117 17.0271L44.0117 13.7465L39.5708 8.82868L37.9305 10.469Z" fill="#CCDDFF"/>
<path d="M36.2899 3.91249L33.0093 7.19314V0.631836L36.2899 3.91249Z" fill="#F4F4F4"/>
<path d="M33.0077 0.631836V7.19314L29.7271 3.91249L33.0077 0.631836Z" fill="#CCDDFF"/>
</svg>
