<svg width="104" height="105" viewBox="0 0 104 105" fill="none" xmlns="http://www.w3.org/2000/svg">
<path d="M56.2874 51.5586L56.9095 52.1807L56.9095 57.1578L53.7988 54.0471L56.2874 51.5586Z" fill="#FEE94E"/>
<path d="M64.3753 59.6462L71.841 67.1119L71.841 72.089L64.3753 64.6233L64.3753 59.6462Z" fill="#FEE94E"/>
<path d="M24.5582 49.692L32.0239 57.1577L46.9553 57.1577L51.9324 52.1806L53.7988 54.047L48.1995 59.6463L32.0239 59.6463L22.0696 49.692L22.0696 32.2721L27.0467 27.2949L28.7058 28.954L24.5582 33.1016L24.5582 49.692Z" fill="#FFBB33"/>
<path d="M49.4437 22.3179L59.398 32.2722L59.398 48.4479L53.7987 54.0471L51.9323 52.1807L56.9094 47.2036L56.9094 32.4796L49.4437 24.8065L32.8533 24.8065L28.7057 28.9541L27.0466 27.295L32.0238 22.3179L49.4437 22.3179Z" fill="#FEE94E"/>
<path d="M53.7989 54.0473L56.9096 57.158L56.9096 59.6465L54.421 59.6465L51.3103 56.5358L53.7989 54.0473Z" fill="#FFBB33"/>
<path d="M64.3753 64.6237L71.841 72.0894L71.841 74.578L69.3524 74.578L64.3753 69.6009L64.3753 64.6237Z" fill="#FFBB33"/>
<path d="M49.4439 24.8067L56.9096 32.4798V47.2038L51.9324 52.1809L50.066 50.3145L54.421 45.9595L54.421 34.7609L46.7479 27.0879L33.6829 27.2952L30.3649 30.6133L28.7058 28.9543L32.8534 24.8067L49.4439 24.8067Z" fill="#FFBB33"/>
<path d="M27.0465 47.2037L34.5122 54.6694L45.7107 54.6694L50.0657 50.3144L51.9321 52.1808L46.955 57.1579H32.0236L24.5579 49.6923L24.5579 33.1018L28.7055 28.9542L30.3646 30.6133L27.0465 33.9313L27.0465 47.2037Z" fill="#DD5F00"/>
<path d="M74.3292 74.5776L79.3064 79.5547L69.3521 79.5547L69.3521 74.5776L74.3292 74.5776Z" fill="#0000B2"/>
<path d="M79.3065 69.6006L79.3065 79.5549L74.3294 74.5777L74.3294 69.6006L79.3065 69.6006Z" fill="#6699FF"/>
<path d="M56.9095 57.1575L64.3752 64.6232L64.3752 69.6003L56.9095 62.1346L56.9095 57.1575Z" fill="#FFBB33"/>
<path d="M59.398 54.6691V57.1576H61.8866L64.3752 59.6462V64.6233L56.9095 57.1576V52.1805L59.398 54.6691Z" fill="#FEE94E"/>
<path d="M71.8409 67.1119L74.3294 69.6005V74.5776L71.8409 72.089V67.1119Z" fill="#FEE94E"/>
<path d="M71.8407 72.0893L74.3293 74.5778H71.8407V72.0893Z" fill="#FFBB33"/>
<path d="M39.7183 39.9665L44.7258 44.974L36.38 44.974L34.7108 43.3049L34.7108 41.6357L36.38 39.9665L39.7183 39.9665Z" fill="#0000FF"/>
<path d="M43.0568 34.959L44.726 36.6282L44.726 44.974L39.7185 39.9665L39.7185 36.6282L41.3876 34.959L43.0568 34.959Z" fill="#79A3FF"/>
<path d="M45.3333 47.8874L43.5591 46.4164C41.2468 44.4993 38.1097 43.9092 35.2588 44.8552L33.0714 45.581L34.5424 43.8068C36.4595 41.4945 37.0496 38.3574 36.1036 35.5065L35.3778 33.3191L37.152 34.7901C39.4643 36.7072 42.6014 37.2973 45.4523 36.3513L47.6397 35.6255L46.1687 37.3997C44.2516 39.712 43.6615 42.8491 44.6075 45.7L45.3333 47.8874Z" fill="white"/>
</svg>
