<svg width="104" height="105" viewBox="0 0 104 105" fill="none" xmlns="http://www.w3.org/2000/svg">
<path d="M56.2874 51.5583L56.9095 52.1805L56.9095 57.1576L53.7988 54.0469L56.2874 51.5583Z" fill="#FEE94E"/>
<path d="M64.3753 59.646L71.841 67.1117L71.841 72.0888L64.3753 64.6231L64.3753 59.646Z" fill="#FEE94E"/>
<path d="M24.5584 49.6919L32.0241 57.1576L46.9555 57.1576L51.9326 52.1805L53.7991 54.0469L48.1998 59.6462L32.0241 59.6462L22.0698 49.6919L22.0698 32.272L27.047 27.2948L28.706 28.9539L24.5584 33.1015L24.5584 49.6919Z" fill="#FFBB33"/>
<path d="M49.444 22.3178L59.3982 32.2721L59.3982 48.4477L53.799 54.047L51.9325 52.1806L56.9097 47.2034L56.9097 32.4794L49.444 24.8064L32.8535 24.8064L28.7059 28.954L27.0469 27.2949L32.024 22.3178L49.444 22.3178Z" fill="#FEE94E"/>
<path d="M53.7986 54.0471L56.9093 57.1578L56.9093 59.6464L54.4208 59.6464L51.3101 56.5356L53.7986 54.0471Z" fill="#FFBB33"/>
<path d="M64.3753 64.6235L71.841 72.0892L71.841 74.5778L69.3524 74.5778L64.3753 69.6006L64.3753 64.6235Z" fill="#FFBB33"/>
<path d="M49.4436 24.8065L56.9093 32.4796V47.2036L51.9322 52.1807L50.0658 50.3143L54.4207 45.9593L54.4207 34.7608L46.7477 27.0877L33.6827 27.2951L30.3646 30.6131L28.7056 28.9541L32.8532 24.8065L49.4436 24.8065Z" fill="#FFBB33"/>
<path d="M27.0465 47.2034L34.5122 54.6691L45.7107 54.6691L50.0657 50.3141L51.9321 52.1805L46.955 57.1576H32.0236L24.5579 49.6919L24.5579 33.1015L28.7055 28.9539L30.3646 30.6129L27.0465 33.931L27.0465 47.2034Z" fill="#DD5F00"/>
<path d="M74.3295 74.5774L79.3066 79.5545L69.3523 79.5545L69.3523 74.5774L74.3295 74.5774Z" fill="#0000B2"/>
<path d="M79.3065 69.6005L79.3065 79.5548L74.3294 74.5777L74.3294 69.6005L79.3065 69.6005Z" fill="#6699FF"/>
<path d="M56.9095 57.1572L64.3752 64.6229L64.3752 69.6L56.9095 62.1343L56.9095 57.1572Z" fill="#FFBB33"/>
<path d="M59.398 54.6689V57.1575H61.8866L64.3752 59.6461V64.6232L56.9095 57.1575V52.1804L59.398 54.6689Z" fill="#FEE94E"/>
<path d="M71.8411 67.1118L74.3297 69.6003V74.5775L71.8411 72.0889V67.1118Z" fill="#FEE94E"/>
<path d="M71.841 72.089L74.3295 74.5775H71.841V72.089Z" fill="#FFBB33"/>
<path d="M39.7185 39.9662L44.726 44.9737L36.3802 44.9737L34.711 43.3046L34.711 41.6354L36.3802 39.9662L39.7185 39.9662Z" fill="#0000FF"/>
<path d="M43.0568 34.9588L44.726 36.628L44.726 44.9738L39.7185 39.9663L39.7185 36.628L41.3876 34.9588L43.0568 34.9588Z" fill="#79A3FF"/>
<path d="M45.3331 47.8872L43.5589 46.4162C41.2466 44.4991 38.1094 43.909 35.2586 44.855L33.0712 45.5808L34.5422 43.8066C36.4593 41.4943 37.0494 38.3572 36.1034 35.5063L35.3776 33.319L37.1517 34.7899C39.4641 36.707 42.6012 37.2971 45.452 36.3511L47.6394 35.6253L46.1685 37.3995C44.2513 39.7118 43.6613 42.8489 44.6073 45.6998L45.3331 47.8872Z" fill="white"/>
</svg>
