<svg width="68" height="58" viewBox="0 0 68 58" fill="none" xmlns="http://www.w3.org/2000/svg">
<g clip-path="url(#clip0_716_5722)">
<path d="M33.7884 34.6207V42.1093L26.2998 34.6207L30.0441 30.8765L33.7884 34.6207Z" fill="#0000FF"/>
<path d="M33.7878 42.1093V45.8536H28.1714V36.4929L33.7878 42.1093Z" fill="#6699FF"/>
<path d="M41.2766 34.6207L33.7881 42.1093V34.6207L37.5324 30.8765L41.2766 34.6207Z" fill="#6699FF"/>
<path d="M39.4045 36.4929V45.8536H33.7881V42.1093L39.4045 36.4929Z" fill="#0000FF"/>
<path d="M30.0435 45.8535H28.1714V57.0863H30.0435V45.8535Z" fill="#FFBB33"/>
<path d="M26.2998 57.0863L30.0441 53.342V57.0863H26.2998Z" fill="#0000B2"/>
<path d="M39.4044 45.8535H37.5322V57.0863H39.4044V45.8535Z" fill="#FEE94E"/>
<path d="M30.0435 45.8535L28.1714 47.7257V45.8535H30.0435Z" fill="#0000B2"/>
<path d="M39.4044 47.7257L37.5322 45.8535H39.4044V47.7257Z" fill="#6699FF"/>
<path d="M37.5322 53.342L41.2765 57.0863H37.5322V53.342Z" fill="#0000B2"/>
<path d="M37.5324 29.0043L33.7881 32.7486V25.26L37.5324 29.0043Z" fill="#FEE94E"/>
<path d="M33.7882 25.26V32.7486L30.0439 29.0043L33.7882 25.26Z" fill="#FFBB33"/>
<path d="M40.3404 33.6847L45.9568 28.0683V23.3879H43.1486V27.1322L38.4683 31.8126L40.3404 33.6847Z" fill="#FEE94E"/>
<path d="M27.2356 33.6847L21.6191 28.0683V23.3879H24.4273V27.1322L29.1077 31.8126L27.2356 33.6847Z" fill="#FFBB33"/>
<path d="M33.7877 0.922363V8.41092H16.9385V6.53878L22.5549 0.922363H33.7877Z" fill="#0000FF"/>
<path d="M54.3816 2.7945L48.7652 8.41092H33.7881V0.922363H54.3816V2.7945Z" fill="#6699FF"/>
<path d="M24.4273 23.3879H21.6191V25.2601H24.4273V23.3879Z" fill="#DD5F00"/>
<path d="M45.9571 23.3879H43.1489V25.2601H45.9571V23.3879Z" fill="#FFBB33"/>
<path d="M7.5784 8.41064L7.6408 22.5141L7.5784 23.3877L0.0898438 15.8992L7.5784 8.41064Z" fill="#FEE94E"/>
<path d="M56.2537 8.41064V23.3877H33.7881V20.8916H52.5095V17.1473L33.7881 17.1785V14.0271H52.5095V10.2828L33.7881 10.314V8.41064H56.2537Z" fill="#FEE94E"/>
<path d="M33.7881 8.41064H7.57812V23.3877H33.7881V8.41064Z" fill="#FFBB33"/>
<path d="M52.5095 10.283V14.0272H33.7881V10.3142L52.5095 10.283Z" fill="#FFBB33"/>
<path d="M33.7884 10.3142V14.0273H11.3228V10.3766L33.7884 10.3142Z" fill="#DD5F00"/>
<path d="M52.5095 17.1475V20.8917H33.7881V17.1787L52.5095 17.1475Z" fill="#FFBB33"/>
<path d="M33.7884 17.1785V20.8915H11.3228V17.2409L33.7884 17.1785Z" fill="#DD5F00"/>
<path d="M67.4866 8.41064H59.998V23.3877H67.4866V8.41064Z" fill="#6699FF"/>
<path d="M59.9982 8.41064V12.1549L56.2539 8.41064H59.9982Z" fill="#FFBB33"/>
<path d="M59.9982 12.1553H56.2539V14.0274H59.9982V12.1553Z" fill="#FFBB33"/>
<path d="M59.9982 17.7715H56.2539V19.6436H59.9982V17.7715Z" fill="#FFBB33"/>
<path d="M59.9982 19.6436V23.3878H56.2539L59.9982 19.6436Z" fill="#FFBB33"/>
<path d="M59.9982 19.6436L56.2539 23.3878V19.6436H59.9982Z" fill="#DD5F00"/>
<path d="M59.9982 12.1549H56.2539V8.41064L59.9982 12.1549Z" fill="#DD5F00"/>
<path d="M59.9982 14.0271H56.2539V17.7714H59.9982V14.0271Z" fill="#DD5F00"/>
<path d="M1.40034 17.2099V14.5889L0.0898438 15.8994L1.40034 17.2099Z" fill="#DD5F00"/>
</g>
<defs>
<clipPath id="clip0_716_5722">
<rect width="67.397" height="56.1641" fill="white" transform="translate(0.0898438 0.922363)"/>
</clipPath>
</defs>
</svg>
