<svg width="82" height="68" viewBox="0 0 82 68" fill="none" xmlns="http://www.w3.org/2000/svg">
<g clip-path="url(#clip0_2399_19750)">
<path d="M41.0824 40.6324V49.5519L32.163 40.6324L36.6227 36.1727L41.0824 40.6324Z" fill="#0000FF"/>
<path d="M41.0818 49.5519V54.0116H34.3922V42.8623L41.0818 49.5519Z" fill="#6699FF"/>
<path d="M50.0016 40.6324L41.0822 49.5519V40.6324L45.5419 36.1727L50.0016 40.6324Z" fill="#6699FF"/>
<path d="M47.7717 42.8623V54.0116H41.0822V49.5519L47.7717 42.8623Z" fill="#0000FF"/>
<path d="M36.6221 54.0115H34.3922V67.3907H36.6221V54.0115Z" fill="#FFBB33"/>
<path d="M32.163 67.3908L36.6227 62.9311V67.3908H32.163Z" fill="#0000B2"/>
<path d="M47.7714 54.0115H45.5415V67.3907H47.7714V54.0115Z" fill="#FEE94E"/>
<path d="M36.6221 54.0115L34.3922 56.2414V54.0115H36.6221Z" fill="#0000B2"/>
<path d="M47.7714 56.2414L45.5415 54.0115H47.7714V56.2414Z" fill="#6699FF"/>
<path d="M45.5415 62.9311L50.0012 67.3908H45.5415V62.9311Z" fill="#0000B2"/>
<path d="M45.5419 33.9429L41.0822 38.4026V29.4832L45.5419 33.9429Z" fill="#FEE94E"/>
<path d="M41.0819 29.4832V38.4026L36.6222 33.9429L41.0819 29.4832Z" fill="#FFBB33"/>
<path d="M48.8864 39.5178L55.5759 32.8282V27.2535H52.2311V31.7133L46.6565 37.2879L48.8864 39.5178Z" fill="#FEE94E"/>
<path d="M33.2776 39.5178L26.588 32.8282V27.2535H29.9328V31.7133L35.5074 37.2879L33.2776 39.5178Z" fill="#FFBB33"/>
<path d="M41.0818 0.495178V9.41462H21.0131V7.18476L27.7026 0.495178H41.0818Z" fill="#0000FF"/>
<path d="M65.6106 2.72504L58.921 9.41462H41.0822V0.495178H65.6106V2.72504Z" fill="#6699FF"/>
<path d="M29.9328 27.2535H26.588V29.4834H29.9328V27.2535Z" fill="#DD5F00"/>
<path d="M55.5762 27.2535H52.2314V29.4834H55.5762V27.2535Z" fill="#FFBB33"/>
<path d="M9.86414 9.41437L9.93847 26.2126L9.86414 27.2532L0.944702 18.3338L9.86414 9.41437Z" fill="#FEE94E"/>
<path d="M67.8405 9.41437V27.2532H41.0822V24.2801H63.3807V19.8204L41.0822 19.8575V16.1039H63.3807V11.6442L41.0822 11.6814V9.41437H67.8405Z" fill="#FEE94E"/>
<path d="M41.0819 9.41437H9.86389V27.2532H41.0819V9.41437Z" fill="#FFBB33"/>
<path d="M63.3807 11.6443V16.1041H41.0822V11.6815L63.3807 11.6443Z" fill="#FFBB33"/>
<path d="M41.0822 11.6815V16.104H14.3239V11.7558L41.0822 11.6815Z" fill="#DD5F00"/>
<path d="M63.3807 19.8205V24.2802H41.0822V19.8577L63.3807 19.8205Z" fill="#FFBB33"/>
<path d="M41.0822 19.8576V24.2802H14.3239V19.9319L41.0822 19.8576Z" fill="#DD5F00"/>
<path d="M81.2192 9.41437H72.2998V27.2532H81.2192V9.41437Z" fill="#6699FF"/>
<path d="M72.3003 9.41437V13.8741L67.8406 9.41437H72.3003Z" fill="#FFBB33"/>
<path d="M72.3003 13.8743H67.8406V16.1042H72.3003V13.8743Z" fill="#FFBB33"/>
<path d="M72.3003 20.5639H67.8406V22.7938H72.3003V20.5639Z" fill="#FFBB33"/>
<path d="M72.3003 22.7936V27.2533H67.8406L72.3003 22.7936Z" fill="#FFBB33"/>
<path d="M72.3003 22.7936L67.8406 27.2533V22.7936H72.3003Z" fill="#DD5F00"/>
<path d="M72.3003 13.8741H67.8406V9.41437L72.3003 13.8741Z" fill="#DD5F00"/>
<path d="M72.3003 16.1039H67.8406V20.5637H72.3003V16.1039Z" fill="#DD5F00"/>
<path d="M2.5056 19.895V16.7732L0.944702 18.3341L2.5056 19.895Z" fill="#DD5F00"/>
</g>
<defs>
<clipPath id="clip0_2399_19750">
<rect width="80.2749" height="66.8958" fill="white" transform="translate(0.944824 0.495178)"/>
</clipPath>
</defs>
</svg>
