<svg width="104" height="105" viewBox="0 0 104 105" fill="none" xmlns="http://www.w3.org/2000/svg">
<path d="M41.0825 40.6323V49.5518L32.1631 40.6323L36.6228 36.1726L41.0825 40.6323Z" fill="#0000FF"/>
<path d="M41.0817 49.5519V54.0116H34.3921V42.8623L41.0817 49.5519Z" fill="#6699FF"/>
<path d="M50.0015 40.6323L41.082 49.5518V40.6323L45.5417 36.1726L50.0015 40.6323Z" fill="#6699FF"/>
<path d="M47.7716 42.8623V54.0116H41.082V49.5519L47.7716 42.8623Z" fill="#0000FF"/>
<path d="M36.6219 54.0115H34.3921V67.3906H36.6219V54.0115Z" fill="#FFBB33"/>
<path d="M32.1631 67.3906L36.6228 62.9309V67.3906H32.1631Z" fill="#0000B2"/>
<path d="M47.7714 54.0115H45.5415V67.3906H47.7714V54.0115Z" fill="#FEE94E"/>
<path d="M36.6219 54.0115L34.3921 56.2413V54.0115H36.6219Z" fill="#0000B2"/>
<path d="M47.7714 56.2413L45.5415 54.0115H47.7714V56.2413Z" fill="#6699FF"/>
<path d="M45.5415 62.9309L50.0012 67.3906H45.5415V62.9309Z" fill="#0000B2"/>
<path d="M45.5417 33.9429L41.082 38.4026V29.4832L45.5417 33.9429Z" fill="#FEE94E"/>
<path d="M41.0818 29.4832V38.4026L36.6221 33.9429L41.0818 29.4832Z" fill="#FFBB33"/>
<path d="M48.8861 39.5176L55.5757 32.8281V27.2534H52.2309V31.7131L46.6562 37.2878L48.8861 39.5176Z" fill="#FEE94E"/>
<path d="M33.2775 39.5176L26.5879 32.8281V27.2534H29.9327V31.7131L35.5073 37.2878L33.2775 39.5176Z" fill="#FFBB33"/>
<path d="M41.0819 0.495117V9.41455H21.0132V7.1847L27.7028 0.495117H41.0819Z" fill="#0000FF"/>
<path d="M65.6105 2.72498L58.9209 9.41455H41.082V0.495117H65.6105V2.72498Z" fill="#6699FF"/>
<path d="M29.9327 27.2534H26.5879V29.4833H29.9327V27.2534Z" fill="#DD5F00"/>
<path d="M55.5762 27.2534H52.2314V29.4833H55.5762V27.2534Z" fill="#FFBB33"/>
<path d="M9.86426 9.41431L9.93859 26.2126L9.86426 27.2532L0.944824 18.3337L9.86426 9.41431Z" fill="#FEE94E"/>
<path d="M67.8403 9.41431V27.2532H41.082V24.28H63.3806V19.8203L41.082 19.8575V16.1039H63.3806V11.6442L41.082 11.6813V9.41431H67.8403Z" fill="#FEE94E"/>
<path d="M41.0818 9.41431H9.86377V27.2532H41.0818V9.41431Z" fill="#FFBB33"/>
<path d="M63.3806 11.6443V16.104H41.082V11.6815L63.3806 11.6443Z" fill="#FFBB33"/>
<path d="M41.082 11.6814V16.104H14.3237V11.7557L41.082 11.6814Z" fill="#DD5F00"/>
<path d="M63.3806 19.8203V24.28H41.082V19.8575L63.3806 19.8203Z" fill="#FFBB33"/>
<path d="M41.082 19.8574V24.28H14.3237V19.9318L41.082 19.8574Z" fill="#DD5F00"/>
<path d="M81.2192 9.41431H72.2998V27.2532H81.2192V9.41431Z" fill="#6699FF"/>
<path d="M72.3001 9.41431V13.874L67.8403 9.41431H72.3001Z" fill="#FFBB33"/>
<path d="M72.3001 13.8743H67.8403V16.1041H72.3001V13.8743Z" fill="#FFBB33"/>
<path d="M72.3001 20.564H67.8403V22.7938H72.3001V20.564Z" fill="#FFBB33"/>
<path d="M72.3001 22.7935V27.2532H67.8403L72.3001 22.7935Z" fill="#FFBB33"/>
<path d="M72.3001 22.7935L67.8403 27.2532V22.7935H72.3001Z" fill="#DD5F00"/>
<path d="M72.3001 13.874H67.8403V9.41431L72.3001 13.874Z" fill="#DD5F00"/>
<path d="M72.3001 16.104H67.8403V20.5637H72.3001V16.104Z" fill="#DD5F00"/>
<path d="M2.50573 19.895V16.7732L0.944824 18.3341L2.50573 19.895Z" fill="#DD5F00"/>
</svg>
