<svg width="211" height="136" viewBox="0 0 211 136" fill="none" xmlns="http://www.w3.org/2000/svg">
<path d="M46.6016 19.3229H96.3351L105.545 29.8493V114.06L97.1245 105.639H46.6016V19.3229Z" fill="#66FF9A"/>
<path d="M114.757 19.3229H164.49V105.639H113.967L105.547 114.06V29.8493L114.757 19.3229Z" fill="#11DDD1"/>
<path d="M116.072 95.1123L105.547 105.639V21.428L111.862 15.1122H156.07V55.1122L151.509 58.621L156.07 63.1824V95.1123H116.072Z" fill="#108C33"/>
<path fill-rule="evenodd" clip-rule="evenodd" d="M105.55 105.638L95.0247 95.1116H55.0273V80.3741L59.2371 76.1639L55.0273 71.9536V15.1115H99.2349L105.55 21.4273V105.638Z" fill="#108C33"/>
<path d="M105.547 46.6912V71.9544L84.4961 50.9017V42.4807L88.7063 38.2701H97.1268L105.547 46.6912Z" fill="#FFBB33"/>
<path d="M126.598 42.4807V50.9017L105.547 71.9544V46.6912L113.967 38.2701H122.388L126.598 42.4807Z" fill="#FEEF7E"/>
<path d="M164.49 105.639L164.49 95.1122L153.965 105.639L164.49 105.639Z" fill="#00D0AB"/>
<path d="M164.49 19.3229L153.965 19.3229L164.49 29.8493L164.49 19.3229Z" fill="#00D0AB"/>
<path d="M156.069 88.7964V95.1122H149.754L156.069 88.7964Z" fill="#155432"/>
<path d="M149.754 15.1122L156.069 15.1122L156.069 21.428L149.754 15.1122Z" fill="#155432"/>
<path d="M46.6016 19.3229V29.8493L57.1272 19.3229H46.6016Z" fill="#00D0AB"/>
<path d="M55.0258 88.7964V95.1122H61.3408L55.0258 88.7964Z" fill="#00777F"/>
<path d="M61.3408 15.1122L55.0258 15.1122L55.0258 21.428L61.3408 15.1122Z" fill="#00777F"/>
<path d="M46.6016 105.639L57.1272 105.639L46.6016 95.1122L46.6016 105.639Z" fill="#00D0AB"/>
<path d="M80.2842 29.8499L76.0742 34.0604H84.4942L80.2842 29.8499Z" fill="#00777F"/>
<path d="M67.6543 76.1648L63.4443 80.3753H71.8644L67.6543 76.1648Z" fill="#00777F"/>
<path d="M183.437 90.9015L179.227 95.112H187.647L183.437 90.9015Z" fill="#00777F"/>
<path d="M143.439 76.1648L139.229 80.3753H147.649L143.439 76.1648Z" fill="#155432"/>
<path d="M118.176 25.6384L113.966 29.849H122.386L118.176 25.6384Z" fill="#155432"/>
<path d="M42.3897 0.375122L38.1797 4.58565H46.5997L42.3897 0.375122Z" fill="#155432"/>
<path d="M88.7058 63.5331L95.0212 69.8489H63.4443V63.5331H88.7058Z" fill="#00D0AB"/>
<path d="M122.388 63.5331L116.073 69.8489H147.649V63.5331H122.388Z" fill="#002821"/>
<path d="M175.016 36.1648V44.5858L189.751 29.849L185.541 25.6384L175.016 36.1648Z" fill="#00FF66"/>
<path d="M36.0791 36.1648V44.5858L21.3432 29.849L25.5535 25.6384L36.0791 36.1648Z" fill="#00FF66"/>
<path d="M145.546 120.375L137.125 120.375L147.651 130.902L156.071 130.902L145.546 120.375Z" fill="#002821"/>
<path d="M65.551 120.375L73.9715 120.375L63.4459 130.902L55.0254 130.902L65.551 120.375Z" fill="#00FF66"/>
<path d="M126.596 76.1648L130.807 80.3753H122.386L118.176 76.1648H126.596Z" fill="#00D0AB"/>
<path d="M126.598 76.1648L122.388 80.3753H130.808L126.598 76.1648Z" fill="#155432"/>
<path d="M122.388 114.06V15.1122H130.808V114.06L126.598 109.849L122.388 114.06Z" fill="#00FABE"/>
<path d="M143.439 38.2701L149.755 44.5859H137.124L143.439 38.2701Z" fill="#00D0AB"/>
<path d="M135.024 50.9009L130.807 55.1189L135.024 59.3369L139.242 55.1189L135.024 50.9009Z" fill="#00D0AB"/>
<path d="M4.50865 88.0942L0.291016 92.3124L4.50865 96.5305L8.72629 92.3124L4.50865 88.0942Z" fill="#00D0AB"/>
<path d="M206.6 63.5325L202.382 67.7505L206.6 71.9686L210.817 67.7505L206.6 63.5325Z" fill="#84CF95"/>
<path d="M185.548 0.375467L181.33 4.59351L185.548 8.81154L189.766 4.59351L185.548 0.375467Z" fill="#00D0AB"/>
<path d="M73.9775 36.1641L69.7598 40.3821L73.9775 44.6002L78.1953 40.3821L73.9775 36.1641Z" fill="#002821"/>
<path d="M29.7685 105.639L25.5508 109.857L29.7685 114.075L33.9863 109.857L29.7685 105.639Z" fill="#002821"/>
<path d="M80.2967 55.119L76.0793 50.9013L63.4417 50.9013L63.4417 55.119L71.862 55.119H80.2967Z" fill="#66FF9A"/>
<path d="M88.7057 80.3753L92.9159 76.1648H84.4954L80.2852 80.3753H88.7057Z" fill="#66FF9A"/>
<path d="M185.542 50.9013L181.332 55.1119L189.753 55.1119L193.963 50.9013L185.542 50.9013Z" fill="#66FF9A"/>
<path d="M21.3402 55.1123L17.13 50.9018L25.5505 50.9018L29.7607 55.1123L21.3402 55.1123Z" fill="#66FF9A"/>
<path d="M33.9701 76.1647L29.7599 80.3752L38.1804 80.3752L42.3906 76.1647L33.9701 76.1647Z" fill="#8FFCBA"/>
<path d="M177.122 76.1647L181.332 80.3752L172.911 80.3752L168.701 76.1647L177.122 76.1647Z" fill="#02504B"/>
<path d="M101.336 84.5858L105.546 80.3752V88.7963L101.336 84.5858Z" fill="#02504B"/>
<path d="M109.758 84.5859L105.548 88.7964L105.548 80.3754L109.758 84.5859Z" fill="#00D0AB"/>
</svg>
