<svg width="110" height="128" viewBox="0 0 110 128" fill="none" xmlns="http://www.w3.org/2000/svg">
<g clip-path="url(#clip0_1014_4823)">
<path d="M54.7836 39.7271V69.9256H51.7638L38.6777 57.3429V52.8131L51.7638 39.7271H54.7836Z" fill="#FFBB33"/>
<path d="M71.3924 53.3164V56.8396L57.8031 69.9256H54.7832V39.7271H57.8031L71.3924 53.3164Z" fill="#FEEF7E"/>
<path d="M54.7832 60.8668L60.8229 54.8271L54.7832 48.7874V60.8668Z" fill="#66FF9A"/>
<path d="M48.7412 54.8271L54.7809 60.8668V48.7874L48.7412 54.8271Z" fill="#00D0AB"/>
<path d="M54.7825 0.469238V12.5487L42.7031 0.469238H54.7825Z" fill="#02504B"/>
<path d="M54.7825 85.025V97.1044L42.7031 85.025H54.7825Z" fill="#02504B"/>
<path d="M54.7825 97.1055V109.185H42.7031L54.7825 97.1055Z" fill="#02504B"/>
<path d="M12.5042 54.8276L0.424805 42.7482V66.907L12.5042 54.8276Z" fill="#02504B"/>
<path d="M12.5029 54.8276L24.5823 66.907V42.7482L12.5029 54.8276Z" fill="#02504B"/>
<path d="M54.7825 12.5487V24.6281H42.7031L54.7825 12.5487Z" fill="#02504B"/>
<path d="M15.5267 57.8467L3.44739 69.9261L39.6855 106.164L51.7651 94.085L15.5267 57.8467Z" fill="#66FF9A"/>
<path d="M39.6855 3.48878L3.44757 39.727L15.5267 51.8065L51.7649 15.5682L39.6855 3.48878Z" fill="#00D0AB"/>
<path d="M3.44466 39.7283L0.424805 42.7482L12.5042 54.8276L15.5241 51.8077L3.44466 39.7283Z" fill="#66FF9A"/>
<path d="M12.5042 54.8266L0.424805 66.906L3.44466 69.9259L15.5241 57.8464L12.5042 54.8266Z" fill="#00D0AB"/>
<path d="M106.106 39.7677L94.041 51.8324L97.0661 54.8575L109.131 42.7928L106.106 39.7677Z" fill="#FF0000"/>
<path d="M42.7034 0.468549L39.6836 3.4884L51.763 15.5678L54.7831 12.548L42.7034 0.468549Z" fill="#66FF9A"/>
<path d="M51.763 94.0844L39.6836 106.164L42.7034 109.184L54.7829 97.1043L51.763 94.0844Z" fill="#00D0AB"/>
<path d="M45.722 33.6887H54.7816V24.6292H42.7021L24.583 42.7483V66.9071L42.7021 85.0262H54.7816V75.9667H45.722L30.6227 60.8674V48.788L45.722 33.6887Z" fill="#FFBB33"/>
<path d="M51.764 39.7275H54.7838V33.6877H45.7243L30.625 48.787V60.8664L45.7243 75.9657H54.7838V69.926H51.764L38.6779 57.3433V52.8135L51.764 39.7275Z" fill="#00D0AB"/>
<path d="M78.942 48.787V60.8664L63.8428 75.9657H54.7832V69.926H57.8031L71.3924 56.84V53.3168L57.8031 39.7275H54.7832V33.6877H63.8428L78.942 48.787Z" fill="#66FF9A"/>
<path d="M84.9818 42.7483V66.9071L66.8626 85.0262H54.7832V75.9667H63.8428L78.942 60.8674V48.788L63.8428 33.6887H54.7832V24.6292H66.8626L84.9818 42.7483Z" fill="#FEEF7E"/>
<path d="M66.8626 24.6281H54.7832V12.5487L66.8626 24.6281Z" fill="#00D0AB"/>
<path d="M66.8626 0.469289L54.7832 12.5487L57.8031 15.5686L69.8825 3.48914L66.8626 0.469289Z" fill="#02504B"/>
<path d="M66.8626 0.469238L54.7832 12.5487V0.469238H66.8626Z" fill="#00D0AB"/>
<path d="M69.8823 3.48808L57.7962 15.5826L94.0416 51.8058L106.121 39.7264L69.8823 3.48808Z" fill="#66FF9A"/>
<path d="M97.0599 54.8276L84.9805 66.907V42.7482L97.0599 54.8276Z" fill="#02504B"/>
<path d="M109.14 42.7482V66.907L97.0605 54.8276L109.14 42.7482Z" fill="#02504B"/>
<path d="M97.0609 54.8258L94.041 57.8457L106.12 69.9251L109.14 66.9053L97.0609 54.8258Z" fill="#66FF9A"/>
<path d="M94.041 57.8461L57.8027 94.0844L69.8822 106.164L106.12 69.9255L94.041 57.8461Z" fill="#00D0AB"/>
<path d="M57.8001 94.0856L54.7806 97.1054L66.8597 109.185L69.88 106.165L57.8001 94.0856Z" fill="#02504B"/>
<path d="M66.8626 109.185H54.7832V97.1055L66.8626 109.185Z" fill="#00D0AB"/>
<path d="M66.8626 85.025L54.7832 97.1044V85.025H66.8626Z" fill="#66FF9A"/>
<path d="M106.121 39.7272L94.041 51.8065L97.0609 54.8264L109.14 42.747L106.121 39.7272Z" fill="#00D0AB"/>
<path d="M24.5823 91.0642L12.5029 103.144V127.302H21.5625V106.163L30.6221 97.1039L24.5823 91.0642Z" fill="#00D0AB"/>
<path d="M84.9811 91.0642L97.0605 103.144V127.302H88.001V106.163L78.9414 97.1039L84.9811 91.0642Z" fill="#66FF9A"/>
</g>
<defs>
<clipPath id="clip0_1014_4823">
<rect width="108.715" height="126.834" fill="white" transform="translate(0.424805 0.468872)"/>
</clipPath>
</defs>
</svg>
